<svg width="26" height="26" viewBox="0 0 26 26" fill="none" xmlns="http://www.w3.org/2000/svg">
<rect width="26" height="26" rx="3" fill="#121218"/>
<g clip-path="url(#clip0)">
<g filter="url(#filter0_dd)">
<path d="M13 4.80184C15.6701 4.80184 15.9864 4.812 17.0408 4.86011C18.0158 4.90461 18.5453 5.06752 18.8977 5.20443C19.3644 5.38583 19.6976 5.60257 20.0475 5.95248C20.3974 6.30239 20.6142 6.63555 20.7955 7.10229C20.9325 7.4547 21.0954 7.98419 21.1399 8.95914C21.188 10.0136 21.1982 10.3299 21.1982 13C21.1982 15.6701 21.188 15.9864 21.1399 17.0409C21.0954 18.0158 20.9325 18.5453 20.7955 18.8978C20.6142 19.3645 20.3974 19.6976 20.0475 20.0476C19.6976 20.3975 19.3644 20.6142 18.8977 20.7956C18.5453 20.9325 18.0158 21.0954 17.0408 21.1399C15.9865 21.188 15.6703 21.1982 13 21.1982C10.3297 21.1982 10.0134 21.188 8.95914 21.1399C7.98415 21.0954 7.45466 20.9325 7.10229 20.7956C6.63551 20.6142 6.30235 20.3975 5.95244 20.0476C5.60253 19.6976 5.38579 19.3645 5.20443 18.8978C5.06748 18.5453 4.90457 18.0158 4.86007 17.0409C4.81196 15.9864 4.8018 15.6701 4.8018 13C4.8018 10.3299 4.81196 10.0136 4.86007 8.95918C4.90457 7.98419 5.06748 7.4547 5.20443 7.10229C5.38579 6.63555 5.60253 6.30239 5.95244 5.95248C6.30235 5.60257 6.63551 5.38583 7.10229 5.20443C7.45466 5.06752 7.98415 4.90461 8.9591 4.86011C10.0136 4.812 10.3299 4.80184 13 4.80184ZM13 3C10.2841 3 9.94362 3.01151 8.87701 3.06018C7.81259 3.10876 7.08569 3.27779 6.44958 3.52501C5.79199 3.78056 5.23432 4.1225 4.67839 4.67843C4.12246 5.23436 3.78052 5.79203 3.52497 6.44962C3.27775 7.08573 3.10872 7.81263 3.06014 8.87705C3.01147 9.94362 3 10.2842 3 13C3 15.7159 3.01147 16.0564 3.06014 17.123C3.10872 18.1874 3.27775 18.9143 3.52497 19.5504C3.78052 20.208 4.12246 20.7657 4.67839 21.3216C5.23432 21.8775 5.79199 22.2195 6.44958 22.475C7.08569 22.7223 7.81259 22.8913 8.87701 22.9399C9.94362 22.9885 10.2841 23 13 23C15.7158 23 16.0564 22.9885 17.1229 22.9399C18.1874 22.8913 18.9143 22.7223 19.5504 22.475C20.208 22.2195 20.7656 21.8775 21.3216 21.3216C21.8775 20.7657 22.2194 20.208 22.475 19.5504C22.7222 18.9143 22.8912 18.1874 22.9398 17.123C22.9885 16.0564 23 15.7159 23 13C23 10.2842 22.9885 9.94362 22.9398 8.87705C22.8912 7.81263 22.7222 7.08573 22.475 6.44962C22.2194 5.79203 21.8775 5.23436 21.3216 4.67843C20.7656 4.1225 20.208 3.78056 19.5504 3.52501C18.9143 3.27779 18.1874 3.10876 17.1229 3.06018C16.0564 3.01151 15.7158 3 13 3ZM13 7.86487C10.1639 7.86487 7.86483 10.164 7.86483 13C7.86483 15.8361 10.1639 18.1352 13 18.1352C15.836 18.1352 18.1351 15.8361 18.1351 13C18.1351 10.164 15.836 7.86487 13 7.86487ZM13 16.3334C11.159 16.3334 9.66663 14.841 9.66663 13C9.66663 11.1591 11.159 9.66667 13 9.66667C14.8409 9.66667 16.3333 11.1591 16.3333 13C16.3333 14.841 14.8409 16.3334 13 16.3334ZM19.538 7.66199C19.538 8.32474 19.0008 8.86201 18.338 8.86201C17.6753 8.86201 17.138 8.32474 17.138 7.66199C17.138 6.99924 17.6753 6.462 18.338 6.462C19.0008 6.462 19.538 6.99924 19.538 7.66199Z" fill="white"/>
</g>
</g>
<defs>
<filter id="filter0_dd" x="-7" y="-7" width="40" height="40" filterUnits="userSpaceOnUse" color-interpolation-filters="sRGB">
<feFlood flood-opacity="0" result="BackgroundImageFix"/>
<feColorMatrix in="SourceAlpha" type="matrix" values="0 0 0 0 0 0 0 0 0 0 0 0 0 0 0 0 0 0 127 0"/>
<feOffset/>
<feGaussianBlur stdDeviation="5"/>
<feColorMatrix type="matrix" values="0 0 0 0 0.0685603 0 0 0 0 0.608795 0 0 0 0 1 0 0 0 1 0"/>
<feBlend mode="normal" in2="BackgroundImageFix" result="effect1_dropShadow"/>
<feColorMatrix in="SourceAlpha" type="matrix" values="0 0 0 0 0 0 0 0 0 0 0 0 0 0 0 0 0 0 127 0"/>
<feOffset/>
<feGaussianBlur stdDeviation="2.5"/>
<feColorMatrix type="matrix" values="0 0 0 0 0.58106 0 0 0 0 0.798909 0 0 0 0 1 0 0 0 0.8 0"/>
<feBlend mode="normal" in2="effect1_dropShadow" result="effect2_dropShadow"/>
<feBlend mode="normal" in="SourceGraphic" in2="effect2_dropShadow" result="shape"/>
</filter>
<clipPath id="clip0">
<rect width="26" height="26" fill="white"/>
</clipPath>
</defs>
</svg>
