<svg width="26" height="26" viewBox="0 0 26 26" fill="none" xmlns="http://www.w3.org/2000/svg">
<g clip-path="url(#clip0)">
<path d="M22.75 26H3.25C1.456 26 0 24.544 0 22.75V3.25C0 1.456 1.456 0 3.25 0H22.75C24.544 0 26 1.456 26 3.25V22.75C26 24.544 24.544 26 22.75 26Z" fill="#121218"/>
<g filter="url(#filter0_d)">
<path d="M9.98404 19.604C16.1135 19.604 19.4675 14.521 19.4675 10.1205C19.4675 9.97749 19.4675 9.83449 19.461 9.69149C20.111 9.22349 20.6765 8.63199 21.125 7.96249C20.527 8.22899 19.8835 8.40449 19.2075 8.48899C19.8965 8.07949 20.423 7.42299 20.6765 6.64299C20.033 7.02649 19.318 7.29949 18.5575 7.44899C17.9465 6.79899 17.082 6.39599 16.1265 6.39599C14.287 6.39599 12.792 7.89099 12.792 9.73049C12.792 9.99049 12.8245 10.244 12.8765 10.491C10.1075 10.3545 7.65054 9.02199 6.00604 7.00699C5.72004 7.50099 5.55754 8.07299 5.55754 8.68399C5.55754 9.84099 6.14904 10.8615 7.03954 11.4595C6.49354 11.44 5.98004 11.2905 5.53154 11.0435C5.53154 11.0565 5.53154 11.0695 5.53154 11.089C5.53154 12.701 6.68204 14.053 8.20304 14.3585C7.92354 14.4365 7.63104 14.4755 7.32554 14.4755C7.11104 14.4755 6.90304 14.456 6.70154 14.417C7.12404 15.743 8.35904 16.705 9.81504 16.731C8.67104 17.628 7.23454 18.161 5.67454 18.161C5.40804 18.161 5.14154 18.148 4.88154 18.1155C6.35054 19.0515 8.10554 19.604 9.98404 19.604Z" fill="url(#paint0_linear)"/>
</g>
</g>
<defs>
<filter id="filter0_d" x="-1.11846" y="0.395994" width="28.2435" height="25.208" filterUnits="userSpaceOnUse" color-interpolation-filters="sRGB">
<feFlood flood-opacity="0" result="BackgroundImageFix"/>
<feColorMatrix in="SourceAlpha" type="matrix" values="0 0 0 0 0 0 0 0 0 0 0 0 0 0 0 0 0 0 127 0"/>
<feOffset/>
<feGaussianBlur stdDeviation="3"/>
<feColorMatrix type="matrix" values="0 0 0 0 0.176894 0 0 0 0 0.555523 0 0 0 0 1 0 0 0 1 0"/>
<feBlend mode="normal" in2="BackgroundImageFix" result="effect1_dropShadow"/>
<feBlend mode="normal" in="SourceGraphic" in2="effect1_dropShadow" result="shape"/>
</filter>
<linearGradient id="paint0_linear" x1="7.99789" y1="12.6174" x2="13.9005" y2="21.6357" gradientUnits="userSpaceOnUse">
<stop stop-color="#5D70C8"/>
<stop offset="1" stop-color="#A7FAE6"/>
</linearGradient>
<clipPath id="clip0">
<rect width="26" height="26" fill="white"/>
</clipPath>
</defs>
</svg>
